<?xml version="1.0" encoding="UTF-8" standalone="no"?>
<!-- Created with Inkscape (http://www.inkscape.org/) -->

<svg
   width="300mm"
   height="300mm"
   viewBox="0 0 300 300"
   version="1.1"
   id="svg5"
   inkscape:version="1.1 (c68e22c387, 2021-05-23)"
   sodipodi:docname="burger_close.svg"
   xmlns:inkscape="http://www.inkscape.org/namespaces/inkscape"
   xmlns:sodipodi="http://sodipodi.sourceforge.net/DTD/sodipodi-0.dtd"
   xmlns="http://www.w3.org/2000/svg"
   xmlns:svg="http://www.w3.org/2000/svg">
  <sodipodi:namedview
     id="namedview7"
     pagecolor="#505050"
     bordercolor="#eeeeee"
     borderopacity="1"
     inkscape:pageshadow="0"
     inkscape:pageopacity="0"
     inkscape:pagecheckerboard="0"
     inkscape:document-units="mm"
     showgrid="false"
     width="300mm"
     inkscape:zoom="0.42919518"
     inkscape:cx="147.95134"
     inkscape:cy="565.01101"
     inkscape:window-width="1366"
     inkscape:window-height="705"
     inkscape:window-x="-8"
     inkscape:window-y="305"
     inkscape:window-maximized="1"
     inkscape:current-layer="layer1" />
  <defs
     id="defs2" />
  <g
     inkscape:label="Layer 1"
     inkscape:groupmode="layer"
     id="layer1">
    <path
       style="fill:#333333;fill-opacity:0;stroke:#646464;stroke-width:15.1181;stroke-linecap:round;paint-order:markers fill stroke;stroke-opacity:1"
       id="path55"
       sodipodi:type="arc"
       sodipodi:cx="217.4021"
       sodipodi:cy="-11.677187"
       sodipodi:rx="109.42234"
       sodipodi:ry="1.0212933"
       sodipodi:start="0.046328119"
       sodipodi:end="0"
       sodipodi:arc-type="arc"
       d="m 326.70703,-11.629889 a 109.42234,1.0212933 0 0 1 -113.10616,0.973379 109.42234,1.0212933 0 0 1 -105.59176,-1.044332 109.42234,1.0212933 0 0 1 110.66029,-0.99757 109.42234,1.0212933 0 0 1 108.15504,1.021225"
       sodipodi:open="true"
       transform="rotate(46.427601)" />
    <path
       style="fill:#333333;fill-opacity:0;stroke:#646464;stroke-width:15.1181;stroke-linecap:round;paint-order:markers fill stroke;stroke-opacity:1"
       id="path283"
       sodipodi:type="arc"
       sodipodi:cx="217.4021"
       sodipodi:cy="-11.677187"
       sodipodi:rx="109.42234"
       sodipodi:ry="1.0212933"
       sodipodi:start="0.046328119"
       sodipodi:end="0"
       sodipodi:arc-type="arc"
       d="m 326.70703,-11.629889 a 109.42234,1.0212933 0 0 1 -113.10616,0.973379 109.42234,1.0212933 0 0 1 -105.59176,-1.044332 109.42234,1.0212933 0 0 1 110.66029,-0.99757 109.42234,1.0212933 0 0 1 108.15504,1.021225"
       sodipodi:open="true"
       transform="rotate(46.427601)" />
    <path
       style="fill:#333333;fill-opacity:0;stroke:#646464;stroke-width:15.1181;stroke-linecap:round;paint-order:markers fill stroke;stroke-opacity:1"
       id="path283-4"
       sodipodi:type="arc"
       sodipodi:cx="0.68768764"
       sodipodi:cy="-216.63002"
       sodipodi:rx="109.42234"
       sodipodi:ry="1.0212933"
       sodipodi:start="0.046328119"
       sodipodi:end="0"
       sodipodi:arc-type="arc"
       sodipodi:open="true"
       transform="rotate(133.45349)"
       d="m 109.99262,-216.58272 a 109.42234,1.0212933 0 0 1 -113.1061658,0.97338 109.42234,1.0212933 0 0 1 -105.5917542,-1.04434 109.42234,1.0212933 0 0 1 110.6602921,-0.99756 109.42234,1.0212933 0 0 1 108.1550379,1.02122" />
  </g>
</svg>
